<svg id="Camada_1" data-name="Camada 1" xmlns="http://www.w3.org/2000/svg" viewBox="0 0 197 197"><defs><style>.cls-1{fill:#fff;}.cls-2{fill:#0072ff;}.cls-3{fill:#8314f7;}</style></defs><title>logo_borda_arredondada</title><rect class="cls-1" x="0.11" y="-0.1" width="197.1" height="197.1" rx="44.47" ry="44.47"/><path id="_Caminho_composto_" data-name="&lt;Caminho composto&gt;" class="cls-2" d="M157.77,119.57,98.34,16.63,37.55,119.53l7.74,4.57L49,117.88a22.67,22.67,0,0,1,18.44-9c12.06,0,21.87,8.72,21.87,19H106c0-10.27,9.81-19,21.87-19a23,23,0,0,1,20.8,12.94h0l1.32,2.29Zm-29.91-19.7c-14.88,0-27.33,9.61-30.22,22.32-2.89-12.72-15.35-22.35-30.22-22.35A32.87,32.87,0,0,0,59,101L98.25,34.45l38.48,66.66A32.91,32.91,0,0,0,127.86,99.88Z"/><g id="_Grupo_" data-name="&lt;Grupo&gt;"><polygon id="_Caminho_" data-name="&lt;Caminho&gt;" class="cls-3" points="86.44 64.72 109.19 64.72 97.81 46.12 86.44 64.72"/><rect id="_Caminho_2" data-name="&lt;Caminho&gt;" class="cls-3" x="37.49" y="138.07" width="8.99" height="37.61"/><rect id="_Caminho_3" data-name="&lt;Caminho&gt;" class="cls-3" x="148.84" y="138.07" width="8.99" height="37.61"/><rect id="_Caminho_4" data-name="&lt;Caminho&gt;" class="cls-3" x="93.32" y="138.07" width="8.99" height="22.21"/></g></svg>